# xmcd
#
# Track frame offsets: 
#        150
#        10383
#        26869
#        34738
#        46064
#        56170
#        69579
#        76077
#        89869
#        100728
#        112805
#        118392
#
# Disc length: 1682 seconds
#
# Revision: 0
# Processed by: cddbd v1.5PL3 Copyright (c) Steve Scherf et al.
# Submitted via: ExactAudioCopy v0.95a4
#
DISCID=9e06900c
DTITLE=Optimistane - Når Kamilla Dreg i Belgen
DYEAR=2002
DGENRE=Folk
TTITLE0=Fjelltrall
TTITLE1=Dobbeltsenga
TTITLE2=Sognedølen
TTITLE3=Når ein stivnar
TTITLE4=Vimmerby fryd
TTITLE5=Festivalsommer
TTITLE6=Frostingen
TTITLE7=Småbruket
TTITLE8=Eskiltuna-minner
TTITLE9=Kom ut på golvet
TTITLE10=Sverre i fossen
TTITLE11=Gode råd er det nok av
EXTD=
EXTT0=
EXTT1=
EXTT2=
EXTT3=
EXTT4=
EXTT5=
EXTT6=
EXTT7=
EXTT8=
EXTT9=
EXTT10=
EXTT11=
PLAYORDER=
